<?xml version="1.0" standalone="no"?>
<!DOCTYPE svg PUBLIC "-//W3C//DTD SVG 20010904//EN"
 "http://www.w3.org/TR/2001/REC-SVG-20010904/DTD/svg10.dtd">
<svg version="1.0" xmlns="http://www.w3.org/2000/svg"
 width="696.000000pt" height="1280.000000pt" viewBox="0 0 696.000000 1280.000000"
 preserveAspectRatio="xMidYMid meet">

<g transform="translate(0.000000,1280.000000) scale(0.100000,-0.100000)"
fill="#000000" stroke="none">
<path d="M0 6400 l0 -6400 3480 0 3480 0 0 6400 0 6400 -3480 0 -3480 0 0
-6400z m5839 1983 c1 -117 -1 -213 -4 -213 -12 0 -75 46 -80 58 -3 8 1 39 9
70 8 32 22 107 31 167 28 190 27 184 35 155 5 -14 8 -121 9 -237z m-32 -317
l27 -24 -12 -146 c-12 -141 -47 -423 -58 -459 -8 -25 -15 -17 -69 75 -27 46
-62 102 -78 125 -35 50 -35 52 22 218 22 66 47 146 56 178 16 55 18 57 50 57
21 0 44 -9 62 -24z m-1138 -196 c107 -275 160 -507 168 -741 9 -229 -23 -389
-102 -524 -88 -151 -272 -274 -479 -320 -63 -14 -80 -15 -86 -5 -15 25 -21
235 -11 367 20 254 82 475 200 716 136 279 241 549 241 624 0 44 18 14 69
-117z m960 -385 c33 -54 59 -101 57 -102 -2 -2 -16 1 -32 8 -16 6 -60 19 -99
29 -80 21 -79 17 -34 117 19 42 33 63 39 57 5 -5 37 -54 69 -109z m-79 -141
c65 -15 180 -62 180 -73 0 -44 -117 -457 -127 -447 -3 2 -24 48 -48 101 -24
54 -71 146 -104 206 -34 61 -61 112 -61 114 0 3 11 29 24 60 28 63 32 64 136
39z m-132 -301 c33 -65 81 -166 106 -226 l46 -107 -20 -53 c-34 -89 -27 -86
-132 -48 -51 18 -151 51 -222 72 -71 22 -131 41 -133 42 -1 2 29 48 68 102 38
54 102 152 140 217 39 65 74 118 78 118 5 0 35 -53 69 -117z m-3840 1 c413
-170 800 -493 1065 -887 68 -101 117 -186 117 -202 0 -14 -71 -38 -168 -57
-94 -17 -265 -5 -351 26 -156 55 -327 202 -448 386 -98 148 -202 381 -265 595
-42 141 -50 175 -43 175 4 0 45 -16 93 -36z m3648 -449 c196 -64 254 -86 254
-99 0 -22 -153 -317 -163 -313 -6 2 -38 57 -71 123 -60 116 -120 215 -187 303
l-32 43 34 -7 c19 -4 93 -27 165 -50z m-214 -42 c63 -84 127 -191 198 -332
l61 -123 -37 -62 c-50 -81 -106 -156 -117 -156 -5 0 -70 24 -146 54 -155 61
-490 176 -515 176 -24 0 -19 17 10 37 107 76 240 192 359 316 77 80 141 146
142 146 1 1 21 -25 45 -56z m-3875 -216 c46 -60 140 -157 196 -202 26 -20 47
-41 47 -46 0 -5 -32 -9 -70 -9 -69 0 -71 1 -90 33 -30 48 -117 219 -124 245
-11 34 6 26 41 -21z m2613 -222 c28 -34 -101 -197 -193 -243 -103 -51 -231
-52 -344 -2 -85 38 -70 61 92 139 107 52 197 83 285 100 30 6 64 13 75 15 43
8 73 5 85 -9z m890 -140 c158 -53 242 -84 403 -147 15 -6 27 -13 27 -16 0 -22
-217 -251 -335 -351 -135 -116 -360 -275 -376 -266 -14 9 -20 316 -9 500 9
171 24 308 36 343 6 18 33 12 254 -63z m-343 3 c-23 -203 -29 -349 -24 -582
l5 -258 -52 -24 c-64 -29 -93 -23 -211 44 -111 63 -184 121 -298 237 -95 97
-257 294 -257 312 0 5 53 22 118 37 199 48 357 106 537 197 94 48 174 87 179
88 5 0 6 -23 3 -51z m-2765 12 c23 -17 25 -28 31 -122 4 -57 13 -130 21 -163
8 -33 13 -62 10 -64 -14 -14 -294 317 -294 348 0 12 39 17 136 19 57 2 76 -2
96 -18z m195 -108 c43 -21 84 -41 91 -46 10 -6 0 -21 -36 -60 -27 -28 -60 -70
-73 -94 -13 -23 -27 -42 -30 -42 -11 0 -27 79 -34 160 -3 41 -8 85 -11 98 -2
12 0 22 5 22 5 0 45 -17 88 -38z m416 -147 c229 -61 315 -70 662 -70 242 0
340 4 448 18 77 10 141 16 144 14 2 -3 -2 -50 -11 -105 -21 -130 -21 -359 0
-459 8 -41 26 -100 40 -131 13 -30 22 -57 20 -60 -7 -7 -134 65 -196 111 -123
92 -383 366 -515 543 -22 29 -43 53 -46 54 -4 0 -14 -30 -23 -67 -38 -164 -29
-318 26 -450 16 -40 28 -77 26 -83 -5 -15 -113 40 -188 95 -85 63 -221 201
-341 345 -114 137 -219 274 -219 285 0 4 10 4 23 0 12 -3 80 -22 150 -40z
m-163 -92 c117 -160 251 -316 394 -460 66 -68 116 -123 111 -123 -6 0 -46 15
-90 34 -184 78 -421 218 -582 343 -96 74 -102 93 -57 172 35 59 112 151 127
150 7 0 50 -53 97 -116z m1544 -144 c158 -192 309 -326 464 -411 75 -42 84
-51 55 -63 -161 -62 -274 -99 -351 -114 -89 -18 -106 -15 -142 26 -91 103
-124 282 -103 551 3 45 9 82 12 82 4 0 33 -32 65 -71z m-748 -66 c165 -207
333 -370 482 -469 61 -41 112 -78 112 -81 0 -14 -381 27 -447 48 -18 6 -33 14
-33 18 0 5 -17 28 -39 52 -47 54 -96 149 -116 226 -16 62 -21 253 -6 253 5 0
26 -21 47 -47z"/>
</g>
</svg>
